<mxfile host="app.diagrams.net" modified="2021-03-22T03:50:05.640Z" agent="5.0 (Windows NT 10.0; Win64; x64) AppleWebKit/537.36 (KHTML, like Gecko) Chrome/89.0.4389.82 Safari/537.36" etag="ntvTBDGGAepkK2J_KjtB" version="14.4.9" type="github">
  <diagram id="R2lEEEUBdFMjLlhIrx00" name="Page-1">
    <mxGraphModel dx="2272" dy="794" grid="1" gridSize="10" guides="1" tooltips="1" connect="1" arrows="1" fold="1" page="1" pageScale="1" pageWidth="850" pageHeight="1100" math="0" shadow="0" extFonts="Permanent Marker^https://fonts.googleapis.com/css?family=Permanent+Marker">
      <root>
        <mxCell id="0" />
        <mxCell id="1" parent="0" />
        <mxCell id="hJNDojN0ychA5ztkHpkA-1" value="Professor" style="rounded=0;whiteSpace=wrap;html=1;" vertex="1" parent="1">
          <mxGeometry x="320" y="560" width="80" height="40" as="geometry" />
        </mxCell>
        <mxCell id="hJNDojN0ychA5ztkHpkA-2" value="Section" style="rounded=0;whiteSpace=wrap;html=1;" vertex="1" parent="1">
          <mxGeometry x="80" y="560" width="80" height="40" as="geometry" />
        </mxCell>
        <mxCell id="hJNDojN0ychA5ztkHpkA-3" value="Assignment" style="rounded=0;whiteSpace=wrap;html=1;" vertex="1" parent="1">
          <mxGeometry x="320" y="400" width="80" height="40" as="geometry" />
        </mxCell>
        <mxCell id="hJNDojN0ychA5ztkHpkA-4" value="Student" style="rounded=0;whiteSpace=wrap;html=1;" vertex="1" parent="1">
          <mxGeometry x="80" y="400" width="80" height="40" as="geometry" />
        </mxCell>
        <mxCell id="hJNDojN0ychA5ztkHpkA-6" value="Grade" style="rounded=0;whiteSpace=wrap;html=1;" vertex="1" parent="1">
          <mxGeometry x="320" y="240" width="80" height="40" as="geometry" />
        </mxCell>
        <mxCell id="hJNDojN0ychA5ztkHpkA-7" value="Teaches" style="rhombus;whiteSpace=wrap;html=1;" vertex="1" parent="1">
          <mxGeometry x="200" y="560" width="80" height="40" as="geometry" />
        </mxCell>
        <mxCell id="hJNDojN0ychA5ztkHpkA-8" value="Contains" style="rhombus;whiteSpace=wrap;html=1;" vertex="1" parent="1">
          <mxGeometry x="80" y="480" width="80" height="40" as="geometry" />
        </mxCell>
        <mxCell id="hJNDojN0ychA5ztkHpkA-9" value="Completes" style="rhombus;whiteSpace=wrap;html=1;" vertex="1" parent="1">
          <mxGeometry x="200" y="400" width="80" height="40" as="geometry" />
        </mxCell>
        <mxCell id="hJNDojN0ychA5ztkHpkA-10" value="Receives" style="rhombus;whiteSpace=wrap;html=1;" vertex="1" parent="1">
          <mxGeometry x="320" y="320" width="80" height="40" as="geometry" />
        </mxCell>
        <mxCell id="hJNDojN0ychA5ztkHpkA-11" value="&lt;font style=&quot;font-size: 11px&quot;&gt;&lt;u&gt;assingment_id&lt;/u&gt;&lt;/font&gt;" style="ellipse;whiteSpace=wrap;html=1;" vertex="1" parent="1">
          <mxGeometry x="425" y="410" width="100" height="40" as="geometry" />
        </mxCell>
        <mxCell id="hJNDojN0ychA5ztkHpkA-12" value="&lt;font style=&quot;font-size: 11px&quot;&gt;assignment_topic&lt;/font&gt;" style="ellipse;whiteSpace=wrap;html=1;" vertex="1" parent="1">
          <mxGeometry x="430" y="350" width="100" height="40" as="geometry" />
        </mxCell>
        <mxCell id="hJNDojN0ychA5ztkHpkA-13" value="&lt;font style=&quot;font-size: 11px&quot;&gt;textbook&lt;/font&gt;" style="ellipse;whiteSpace=wrap;html=1;" vertex="1" parent="1">
          <mxGeometry x="250" y="460" width="100" height="40" as="geometry" />
        </mxCell>
        <mxCell id="hJNDojN0ychA5ztkHpkA-14" value="&lt;font style=&quot;font-size: 11px&quot;&gt;due_date&lt;/font&gt;" style="ellipse;whiteSpace=wrap;html=1;" vertex="1" parent="1">
          <mxGeometry x="370" y="460" width="100" height="40" as="geometry" />
        </mxCell>
        <mxCell id="hJNDojN0ychA5ztkHpkA-15" value="&lt;u&gt;student_id&lt;/u&gt;" style="ellipse;whiteSpace=wrap;html=1;" vertex="1" parent="1">
          <mxGeometry x="-40" y="400" width="100" height="40" as="geometry" />
        </mxCell>
        <mxCell id="hJNDojN0ychA5ztkHpkA-16" value="&lt;u&gt;section_id&lt;/u&gt;" style="ellipse;whiteSpace=wrap;html=1;" vertex="1" parent="1">
          <mxGeometry x="70" y="620" width="100" height="40" as="geometry" />
        </mxCell>
        <mxCell id="hJNDojN0ychA5ztkHpkA-17" value="professor_email" style="ellipse;whiteSpace=wrap;html=1;" vertex="1" parent="1">
          <mxGeometry x="310" y="620" width="100" height="40" as="geometry" />
        </mxCell>
        <mxCell id="hJNDojN0ychA5ztkHpkA-18" value="classroom" style="ellipse;whiteSpace=wrap;html=1;" vertex="1" parent="1">
          <mxGeometry x="-40" y="560" width="100" height="40" as="geometry" />
        </mxCell>
        <mxCell id="hJNDojN0ychA5ztkHpkA-21" value="" style="endArrow=none;dashed=1;html=1;" edge="1" parent="1">
          <mxGeometry width="50" height="50" relative="1" as="geometry">
            <mxPoint x="119" y="620" as="sourcePoint" />
            <mxPoint x="119" y="600" as="targetPoint" />
          </mxGeometry>
        </mxCell>
        <mxCell id="hJNDojN0ychA5ztkHpkA-24" value="" style="endArrow=none;dashed=1;html=1;" edge="1" parent="1">
          <mxGeometry width="50" height="50" relative="1" as="geometry">
            <mxPoint x="280" y="579.5" as="sourcePoint" />
            <mxPoint x="320" y="580" as="targetPoint" />
          </mxGeometry>
        </mxCell>
        <mxCell id="hJNDojN0ychA5ztkHpkA-25" value="" style="endArrow=none;dashed=1;html=1;" edge="1" parent="1">
          <mxGeometry width="50" height="50" relative="1" as="geometry">
            <mxPoint x="160" y="579.5" as="sourcePoint" />
            <mxPoint x="200" y="580" as="targetPoint" />
          </mxGeometry>
        </mxCell>
        <mxCell id="hJNDojN0ychA5ztkHpkA-26" value="" style="endArrow=none;dashed=1;html=1;entryX=0.5;entryY=1;entryDx=0;entryDy=0;" edge="1" parent="1" target="hJNDojN0ychA5ztkHpkA-4">
          <mxGeometry width="50" height="50" relative="1" as="geometry">
            <mxPoint x="120" y="480" as="sourcePoint" />
            <mxPoint x="170" y="430" as="targetPoint" />
          </mxGeometry>
        </mxCell>
        <mxCell id="hJNDojN0ychA5ztkHpkA-27" value="" style="endArrow=none;dashed=1;html=1;entryX=0;entryY=0.5;entryDx=0;entryDy=0;" edge="1" parent="1" target="hJNDojN0ychA5ztkHpkA-2">
          <mxGeometry width="50" height="50" relative="1" as="geometry">
            <mxPoint x="60" y="580" as="sourcePoint" />
            <mxPoint x="90" y="550" as="targetPoint" />
          </mxGeometry>
        </mxCell>
        <mxCell id="hJNDojN0ychA5ztkHpkA-28" value="" style="endArrow=none;dashed=1;html=1;entryX=0.5;entryY=1;entryDx=0;entryDy=0;" edge="1" parent="1" target="hJNDojN0ychA5ztkHpkA-8">
          <mxGeometry width="50" height="50" relative="1" as="geometry">
            <mxPoint x="120" y="560" as="sourcePoint" />
            <mxPoint x="170" y="510" as="targetPoint" />
          </mxGeometry>
        </mxCell>
        <mxCell id="hJNDojN0ychA5ztkHpkA-30" value="" style="endArrow=none;dashed=1;html=1;entryX=0;entryY=0.5;entryDx=0;entryDy=0;" edge="1" parent="1">
          <mxGeometry width="50" height="50" relative="1" as="geometry">
            <mxPoint x="60" y="420" as="sourcePoint" />
            <mxPoint x="80" y="420" as="targetPoint" />
          </mxGeometry>
        </mxCell>
        <mxCell id="hJNDojN0ychA5ztkHpkA-31" value="" style="endArrow=none;dashed=1;html=1;" edge="1" parent="1">
          <mxGeometry width="50" height="50" relative="1" as="geometry">
            <mxPoint x="359" y="620" as="sourcePoint" />
            <mxPoint x="359" y="600" as="targetPoint" />
          </mxGeometry>
        </mxCell>
        <mxCell id="hJNDojN0ychA5ztkHpkA-32" value="" style="endArrow=none;dashed=1;html=1;entryX=0;entryY=0.5;entryDx=0;entryDy=0;" edge="1" parent="1" target="hJNDojN0ychA5ztkHpkA-9">
          <mxGeometry width="50" height="50" relative="1" as="geometry">
            <mxPoint x="160" y="420" as="sourcePoint" />
            <mxPoint x="210" y="370" as="targetPoint" />
          </mxGeometry>
        </mxCell>
        <mxCell id="hJNDojN0ychA5ztkHpkA-33" value="" style="endArrow=none;dashed=1;html=1;entryX=0;entryY=0.5;entryDx=0;entryDy=0;" edge="1" parent="1" target="hJNDojN0ychA5ztkHpkA-3">
          <mxGeometry width="50" height="50" relative="1" as="geometry">
            <mxPoint x="280" y="420" as="sourcePoint" />
            <mxPoint x="300" y="370" as="targetPoint" />
          </mxGeometry>
        </mxCell>
        <mxCell id="hJNDojN0ychA5ztkHpkA-34" value="" style="endArrow=none;dashed=1;html=1;entryX=0.25;entryY=1;entryDx=0;entryDy=0;" edge="1" parent="1" target="hJNDojN0ychA5ztkHpkA-3">
          <mxGeometry width="50" height="50" relative="1" as="geometry">
            <mxPoint x="300" y="460" as="sourcePoint" />
            <mxPoint x="330" y="410" as="targetPoint" />
          </mxGeometry>
        </mxCell>
        <mxCell id="hJNDojN0ychA5ztkHpkA-35" value="" style="endArrow=none;dashed=1;html=1;entryX=0.5;entryY=1;entryDx=0;entryDy=0;" edge="1" parent="1" target="hJNDojN0ychA5ztkHpkA-10">
          <mxGeometry width="50" height="50" relative="1" as="geometry">
            <mxPoint x="360" y="400" as="sourcePoint" />
            <mxPoint x="410" y="350" as="targetPoint" />
          </mxGeometry>
        </mxCell>
        <mxCell id="hJNDojN0ychA5ztkHpkA-36" value="" style="endArrow=none;dashed=1;html=1;entryX=0.5;entryY=1;entryDx=0;entryDy=0;" edge="1" parent="1" target="hJNDojN0ychA5ztkHpkA-6">
          <mxGeometry width="50" height="50" relative="1" as="geometry">
            <mxPoint x="360" y="320" as="sourcePoint" />
            <mxPoint x="400" y="270" as="targetPoint" />
          </mxGeometry>
        </mxCell>
        <mxCell id="hJNDojN0ychA5ztkHpkA-38" value="" style="endArrow=none;dashed=1;html=1;entryX=0.75;entryY=1;entryDx=0;entryDy=0;" edge="1" parent="1" target="hJNDojN0ychA5ztkHpkA-3">
          <mxGeometry width="50" height="50" relative="1" as="geometry">
            <mxPoint x="420" y="460" as="sourcePoint" />
            <mxPoint x="470" y="410" as="targetPoint" />
          </mxGeometry>
        </mxCell>
        <mxCell id="hJNDojN0ychA5ztkHpkA-39" value="" style="endArrow=none;dashed=1;html=1;entryX=0;entryY=0.5;entryDx=0;entryDy=0;exitX=1;exitY=0.75;exitDx=0;exitDy=0;" edge="1" parent="1" source="hJNDojN0ychA5ztkHpkA-3" target="hJNDojN0ychA5ztkHpkA-11">
          <mxGeometry width="50" height="50" relative="1" as="geometry">
            <mxPoint x="400" y="430" as="sourcePoint" />
            <mxPoint x="390" y="380" as="targetPoint" />
          </mxGeometry>
        </mxCell>
        <mxCell id="hJNDojN0ychA5ztkHpkA-40" value="" style="endArrow=none;dashed=1;html=1;exitX=1;exitY=0.25;exitDx=0;exitDy=0;" edge="1" parent="1" source="hJNDojN0ychA5ztkHpkA-3">
          <mxGeometry width="50" height="50" relative="1" as="geometry">
            <mxPoint x="430" y="440" as="sourcePoint" />
            <mxPoint x="480" y="390" as="targetPoint" />
          </mxGeometry>
        </mxCell>
        <mxCell id="hJNDojN0ychA5ztkHpkA-41" value="&lt;u&gt;professor&lt;/u&gt;" style="ellipse;whiteSpace=wrap;html=1;" vertex="1" parent="1">
          <mxGeometry x="420" y="560" width="100" height="40" as="geometry" />
        </mxCell>
        <mxCell id="hJNDojN0ychA5ztkHpkA-42" value="" style="endArrow=none;dashed=1;html=1;entryX=0;entryY=0.5;entryDx=0;entryDy=0;" edge="1" parent="1" target="hJNDojN0ychA5ztkHpkA-41">
          <mxGeometry width="50" height="50" relative="1" as="geometry">
            <mxPoint x="400" y="580" as="sourcePoint" />
            <mxPoint x="450" y="530" as="targetPoint" />
          </mxGeometry>
        </mxCell>
        <mxCell id="hJNDojN0ychA5ztkHpkA-43" value="grade" style="ellipse;whiteSpace=wrap;html=1;" vertex="1" parent="1">
          <mxGeometry x="180" y="240" width="120" height="40" as="geometry" />
        </mxCell>
        <mxCell id="hJNDojN0ychA5ztkHpkA-44" value="" style="endArrow=none;dashed=1;html=1;exitX=1;exitY=0.5;exitDx=0;exitDy=0;" edge="1" parent="1" source="hJNDojN0ychA5ztkHpkA-43">
          <mxGeometry width="50" height="50" relative="1" as="geometry">
            <mxPoint x="270" y="310" as="sourcePoint" />
            <mxPoint x="320" y="260" as="targetPoint" />
          </mxGeometry>
        </mxCell>
      </root>
    </mxGraphModel>
  </diagram>
</mxfile>
